# xmcd
#
# Track frame offsets:
#	150
#	29967
#	49964
#	64634
#	86124
#	99632
#	116624
#	134647
#	152919
#	170704
#	188642
#	208632
#	225912
#	245017
#	264645
#	281742
#	306066
#	319838
#	332401
#
# Disc length: 4597 seconds
#
# Revision: 2
# Processed by: cddbd v1.5.1PL2 Copyright (c) Steve Scherf et al.
# Submitted via: EasyCDDAExtractor 10.0.0.1
#
DISCID=1e11f313
DTITLE=Various Artist - Soul Platinum
DYEAR=2002
DGENRE=Soul
TTITLE0=Stevie Wonder - Isn't She Lovely
TTITLE1=Earth Wind and Fire - After The Love Has Gone
TTITLE2=Al Green - Let's Stay Together
TTITLE3=Billy Paul - Me And Mrs Jones
TTITLE4=Ben E.King - Stand By Me
TTITLE5=Otis Redding - Try A Little Tenderness
TTITLE6=Barry White - I'm Gonna Love You Just A Little More
TTITLE7=Dennis Edwards feat. Siedah Garrett - Don't Look Any Further
TTITLE8=Boyz II Men - I'll Make Love To You
TTITLE9=Omar - There's Nothing Like This
TTITLE10=Diana Ross and Lionel Richie - Endless Love
TTITLE11=Billy Ocean - Suddenly
TTITLE12=The Commodores - Easy
TTITLE13=Smokey Robinson - Cruisin'
TTITLE14=Erykah Badu - On and On
TTITLE15=Marvin Gaye - Inner City Blues (Make Me Wanna Holler)
TTITLE16=Etta James - I Just Want To Make Love To You
TTITLE17=Dinah Washington - Mad About The Boy
TTITLE18=James Brown - It's A Man's Man's World
EXTD=
EXTT0=
EXTT1=
EXTT2=
EXTT3=
EXTT4=
EXTT5=
EXTT6=
EXTT7=
EXTT8=
EXTT9=
EXTT10=
EXTT11=
EXTT12=
EXTT13=
EXTT14=
EXTT15=
EXTT16=
EXTT17=
EXTT18=
PLAYORDER=
